<svg xml:space="preserve" style="max-height: 500px" viewBox="134.21042830540037 181.2516 106.53817504655493 165.34019999999998" y="0px" x="0px" xmlns:xlink="http://www.w3.org/1999/xlink" xmlns="http://www.w3.org/2000/svg" id="svg2" version="1.1" width="106.53817504655493" height="165.34019999999998">
<style type="text/css">
	.st0{fill:#FFFF00;stroke:#000000;stroke-width:1.0626;}
	.st1{fill:#FFFF00;stroke:#000000;stroke-width:0.694;}
	.st2{fill:#CBBE00;stroke:#000000;}
	.st3{opacity:0.3433;fill:#FFFF00;enable-background:new    ;}
	.st4{fill-rule:evenodd;clip-rule:evenodd;fill:#FFFFFF;stroke:#000000;stroke-width:0.25;}
	.st5{fill:#008000;stroke:#000000;stroke-width:1.0626;}
	.st6{fill:#008000;stroke:#000000;stroke-width:0.6945;}
	.st7{fill:#009000;stroke:#006B00;}
	.st8{opacity:0.3433;fill:#00C500;enable-background:new    ;}
	.st9{fill:#FF0000;stroke:#000000;stroke-width:1.0626;}
	.st10{fill:#FF0000;stroke:#000000;stroke-width:0.6945;}
	.st11{fill:#8B1E00;stroke:#000000;}
	.st12{opacity:0.3433;fill:#FF7D00;enable-background:new    ;}
	.st13{fill:#552200;stroke:#000000;stroke-width:1.0626;}
	.st14{fill:#552200;stroke:#000000;stroke-width:0.6945;}
	.st15{fill:#803300;stroke:#000000;}
	.st16{opacity:0.3433;fill:#D45500;enable-background:new    ;}
	.st17{fill:#0000FF;stroke:#000000;stroke-width:1.0626;}
	.st18{fill:#0000FF;stroke:#000000;stroke-width:0.6945;}
	.st19{fill:#0037A0;stroke:#000000;}
	.st20{opacity:0.3433;fill:#0077FF;enable-background:new    ;}
	.st21{fill:#4D4D4D;stroke:#000000;stroke-width:1.0626;}
	.st22{fill:#4D4D4D;stroke:#000000;stroke-width:0.6945;}
	.st23{fill:#333333;stroke:#000000;}
	.st24{opacity:0.3433;fill:#4D4D67;enable-background:new    ;}
</style>
<g transform="translate(0 -652.36)" id="layer1">
	<g transform="translate(-3.4089 10.227)" id="g4213">
		<path d="M23.3,682.4h65c7,0,12.6,5.7,12.6,12.6v91.9c0,7-5.7,12.6-12.6,12.6h-65&#10;&#9;&#9;&#9;c-7,0-12.6-5.7-12.6-12.6V695C10.7,688,16.3,682.4,23.3,682.4z" class="st0" id="rect2996"/>
		<rect height="3.4" width="69.1" y="800" x="21.1" id="rect3766"/>
		<path d="M55.8,642.5c-25.1,0-46,11.9-51.1,27.8c-0.6,1.2-0.9,2.6-0.9,4.1v25.1c0,5.1,4.1,9.2,9.2,9.2&#10;&#9;&#9;&#9;h85.6c5.1,0,9.2-4.1,9.2-9.2v-25.1c0-0.4-0.1-0.7-0.1-1.1h0.1c0-0.2-0.1-0.3-0.1-0.5c-0.1-0.5-0.2-1.1-0.4-1.6&#10;&#9;&#9;&#9;C102.7,654.8,81.4,642.5,55.8,642.5L55.8,642.5z" class="st1" id="rect2996-2"/>
		<path d="M98.9,689.3c0,8.4-19.2,15.2-42.9,15.2S13,697.7,13,689.3c0-8.4,19.2-15.2,42.9-15.2&#10;&#9;&#9;&#9;S98.9,680.8,98.9,689.3z" class="st2" id="path3809"/>
		<path d="M93.2,693.5c0.1,4.6-15.8,9.6-36.5,10.4c-16.6,0.7-31.3-3.8-36.3-7.8&#10;&#9;&#9;&#9;c-1.5-1.2-2.1-2.1-1.7-2.6c3.4-4,16.9-9.5,37.4-9.5C76.6,683.9,93,688.2,93.2,693.5L93.2,693.5z" class="st3" id="path3809-6"/>
		<g transform="matrix(.56968 0 0 .56968 65.385 744.27)" id="imagebot_2">
			<g transform="matrix(.96875 0 0 .98751 1.9543 1.2975)" id="imagebot_3">
				<path d="M-3.7,0.3L13.4-9.9l7.7,14.8C23,13,12.8,16,4.7,15.5L-3.7,0.3L-3.7,0.3z" class="st4" id="imagebot_9"/>
				<path d="M-7.6,10.9l-9,15.9l9,16.2l0.2-6.5h8.2c3,0.3,6.9-1.7,8.3-4.6l10.6-19.4&#10;&#9;&#9;&#9;&#9;&#9;c-3.5,3.5-8,4.3-13.1,4.3H-7.3L-7.6,10.9L-7.6,10.9z" class="st4" id="imagebot_8"/>
				<path d="M-27.7-8.7l-17.3-10l9.2-13.9c6.2-5.6,13.7,1.9,17.2,9.3L-27.7-8.7L-27.7-8.7z" class="st4" id="imagebot_7"/>
				<path d="M-16.6-10.5l18.3,0.2l9.7-15.7l-5.8,2.9l-4-7.2c-1.2-2.8-4.8-5.2-8-5.1l-22.1,0.2&#10;&#9;&#9;&#9;&#9;&#9;c4.7,1.4,7.7,4.9,10.2,9.4l6.8,12.2L-16.6-10.5L-16.6-10.5z" class="st4" id="imagebot_6"/>
				<path d="M-58.2-9.6l5.4,4.1l-5,9.5c-2.5,4.4,1.8,8.6,4.6,10.1c2.7,1.5,6.9,1.6,10.9,1.6l7.1-11.4&#10;&#9;&#9;&#9;&#9;&#9;l5.4,2.8l-9.3-16.9L-58.2-9.6L-58.2-9.6z" class="st4" id="imagebot_5"/>
				<path d="M-57.4,12.4l11.5,20.8c2.3,2.9,6.7,3.6,11.2,3.5h12.1V16.9l-23-0.2&#10;&#9;&#9;&#9;&#9;&#9;C-49.2,17-53.9,16.2-57.4,12.4L-57.4,12.4z" class="st4" id="imagebot_4"/>
			</g>
			<title id="title3850">imagebot_2</title>
		</g>
	</g>
	<g transform="translate(-3.4089 -32.385)" id="g4165">
		<path d="M27.4,909.1h65c7,0,12.6,5.7,12.6,12.6v91.9c0,7-5.7,12.6-12.6,12.6h-65&#10;&#9;&#9;&#9;c-7,0-12.6-5.7-12.6-12.6v-91.9C14.8,914.7,20.4,909.1,27.4,909.1z" class="st5" id="rect2996-1"/>
		<rect height="3.4" width="69.1" y="1026.6" x="25.2" id="rect3766-4"/>
		<path d="M59.8,868.7c-26.7,0-48.6,13.4-51.8,30.8h0c-0.1,0.5-0.1,1-0.1,1.5v25.1&#10;&#9;&#9;&#9;c0,5.1,4.1,9.2,9.2,9.2h85.6c5.1,0,9.2-4.1,9.2-9.2V901c0-0.5-0.1-1-0.2-1.5c0-0.3-0.1-0.5-0.2-0.8&#10;&#9;&#9;&#9;C107.8,881.7,86.1,868.7,59.8,868.7L59.8,868.7z" class="st6" id="rect2996-2-6"/>
		<path d="M103,916.1c0,8.4-19.2,15.1-42.9,15.1s-42.9-6.8-42.9-15.1c0-8.4,19.2-15.1,42.9-15.1&#10;&#9;&#9;&#9;S103,907.7,103,916.1z" class="st7" id="path3809-9"/>
		<path d="M97.3,920.2c0.1,4.6-15.8,9.6-36.5,10.4c-16.6,0.7-31.3-3.8-36.3-7.8&#10;&#9;&#9;&#9;c-1.5-1.2-2.1-2.1-1.7-2.6c3.4-4,16.9-9.5,37.4-9.5C80.7,910.6,97.2,914.9,97.3,920.2L97.3,920.2z" class="st8" id="path3809-6-9"/>
		<g transform="matrix(.56968 0 0 .56968 69.505 970.98)" id="imagebot_2-3">
			<g transform="matrix(.96875 0 0 .98751 1.9543 1.2975)" id="imagebot_3-3">
				<path d="M-3.7,0.3L13.4-9.9l7.7,14.8C23,13,12.8,16,4.7,15.5L-3.7,0.3L-3.7,0.3z" class="st4" id="imagebot_9-4"/>
				<path d="M-7.6,10.9l-9,16l9,16.2l0.2-6.5h8.2c3,0.3,6.9-1.7,8.3-4.6l10.6-19.4&#10;&#9;&#9;&#9;&#9;&#9;c-3.5,3.5-8,4.3-13.1,4.3H-7.3L-7.6,10.9L-7.6,10.9z" class="st4" id="imagebot_8-5"/>
				<path d="M-27.7-8.7l-17.3-10l9.2-13.9c6.2-5.6,13.7,1.9,17.2,9.3L-27.7-8.7L-27.7-8.7z" class="st4" id="imagebot_7-1"/>
				<path d="M-16.6-10.5l18.3,0.2l9.7-15.7l-5.8,2.9l-4-7.2c-1.2-2.8-4.8-5.2-8-5.1l-22.1,0.2&#10;&#9;&#9;&#9;&#9;&#9;c4.7,1.4,7.7,4.9,10.2,9.4l6.8,12.2L-16.6-10.5L-16.6-10.5z" class="st4" id="imagebot_6-8"/>
				<path d="M-58.2-9.6l5.4,4.1l-5,9.5c-2.5,4.4,1.8,8.6,4.6,10.1c2.7,1.5,6.9,1.6,10.9,1.6l7.1-11.4&#10;&#9;&#9;&#9;&#9;&#9;l5.4,2.8l-9.3-16.9L-58.2-9.6L-58.2-9.6z" class="st4" id="imagebot_5-9"/>
				<path d="M-57.4,12.4l11.5,20.8c2.3,2.9,6.7,3.6,11.2,3.5h12.1V16.9l-23-0.2&#10;&#9;&#9;&#9;&#9;&#9;C-49.2,17-53.9,16.2-57.4,12.4L-57.4,12.4z" class="st4" id="imagebot_4-2"/>
			</g>
			<title id="title3850-9">imagebot_2</title>
		</g>
	</g>
	<g transform="translate(-3.4089 10.227)" id="g4229">
		<path d="M154.5,683h65c7,0,12.6,5.7,12.6,12.6v91.9c0,7-5.7,12.6-12.6,12.6h-65&#10;&#9;&#9;&#9;c-7,0-12.6-5.7-12.6-12.6v-91.9C141.9,688.6,147.6,683,154.5,683z" class="st9" id="rect2996-4"/>
		<rect height="3.4" width="69.1" y="800.5" x="152.3" id="rect3766-8"/>
		<path d="M187,642.6c-26,0-47.5,12.8-51.6,29.5c0,0.1,0,0.2-0.1,0.3c-0.1,0.3-0.2,0.7-0.2,1&#10;&#9;&#9;&#9;c-0.1,0.5-0.1,0.9-0.1,1.4V700c0,5.1,4.1,9.2,9.2,9.2h85.6c5.1,0,9.2-4.1,9.2-9.2v-25.1c0-0.5-0.1-1-0.1-1.4h0&#10;&#9;&#9;&#9;c0-0.1-0.1-0.3-0.1-0.4c-0.1-0.3-0.1-0.6-0.2-0.9C234.5,655.4,213,642.6,187,642.6L187,642.6z" class="st10" id="rect2996-2-3"/>
		<path d="M230.1,689.2c0,8.8-19.2,15.9-42.9,15.9s-42.9-7.1-42.9-15.9s19.2-15.9,42.9-15.9&#10;&#9;&#9;&#9;S230.1,680.4,230.1,689.2z" class="st11" id="path3809-3"/>
		<path d="M224.4,694c0.1,4.6-15.8,9.6-36.5,10.4c-16.6,0.7-31.3-3.8-36.3-7.8&#10;&#9;&#9;&#9;c-1.5-1.2-2.1-2.1-1.7-2.6c3.4-4,16.9-9.5,37.4-9.5C207.8,684.5,224.3,688.8,224.4,694L224.4,694z" class="st12" id="path3809-6-6"/>
		<g transform="matrix(.56968 0 0 .56968 196.64 744.86)" id="imagebot_2-37">
			<g transform="matrix(.96875 0 0 .98751 1.9543 1.2975)" id="imagebot_3-9">
				<path d="M-3.7,0.3L13.4-9.9l7.7,14.8C23,13,12.8,16,4.7,15.5L-3.7,0.3L-3.7,0.3z" class="st4" id="imagebot_9-0"/>
				<path d="M-7.6,10.9l-9,15.9l9,16.2l0.2-6.5h8.2c3,0.3,6.9-1.7,8.3-4.6l10.6-19.4&#10;&#9;&#9;&#9;&#9;&#9;c-3.5,3.5-8,4.3-13.1,4.3H-7.3L-7.6,10.9L-7.6,10.9z" class="st4" id="imagebot_8-52"/>
				<path d="M-27.7-8.7l-17.3-10l9.2-13.9c6.2-5.6,13.7,1.9,17.2,9.3L-27.7-8.7L-27.7-8.7z" class="st4" id="imagebot_7-11"/>
				<path d="M-16.6-10.5l18.3,0.2l9.7-15.7l-5.8,2.9l-4-7.2c-1.2-2.8-4.8-5.2-8-5.1l-22.1,0.2&#10;&#9;&#9;&#9;&#9;&#9;c4.7,1.4,7.7,4.9,10.2,9.4l6.8,12.2L-16.6-10.5L-16.6-10.5z" class="st4" id="imagebot_6-6"/>
				<path d="M-58.2-9.6l5.4,4.1l-5,9.5c-2.5,4.4,1.8,8.6,4.6,10.1c2.7,1.5,6.9,1.6,10.9,1.6l7.1-11.4&#10;&#9;&#9;&#9;&#9;&#9;l5.4,2.8l-9.3-16.9L-58.2-9.6L-58.2-9.6z" class="st4" id="imagebot_5-6"/>
				<path d="M-57.4,12.4l11.5,20.8c2.3,2.9,6.7,3.6,11.2,3.5h12.1V16.9l-23-0.2&#10;&#9;&#9;&#9;&#9;&#9;C-49.2,17-53.9,16.2-57.4,12.4L-57.4,12.4z" class="st4" id="imagebot_4-8"/>
			</g>
			<title id="title3850-6">imagebot_2</title>
		</g>
	</g>
	<g transform="translate(-3.4089 -32.385)" id="g4181">
		<path d="M158.7,909.7h65c7,0,12.6,5.7,12.6,12.6v91.9c0,7-5.7,12.6-12.6,12.6h-65&#10;&#9;&#9;&#9;c-7,0-12.6-5.7-12.6-12.6v-91.9C146,915.3,151.7,909.7,158.7,909.7z" class="st13" id="rect2996-1-9"/>
		<rect height="3.4" width="69.1" y="1027.2" x="156.4" id="rect3766-4-0"/>
		<path d="M191.1,869.6c-25.2,0-46.2,12-51.1,28c-0.6,1.2-0.9,2.6-0.9,4v25.1&#10;&#9;&#9;&#9;c0,5.1,4.1,9.2,9.2,9.2h85.6c5.1,0,9.2-4.1,9.2-9.2v-25.1c0-1.3-0.3-2.6-0.8-3.7C237.5,881.7,216.5,869.6,191.1,869.6L191.1,869.6&#10;&#9;&#9;&#9;z" class="st14" id="rect2996-2-6-7"/>
		<path d="M234.2,916.4c0,8.5-19.2,15.4-42.9,15.4s-42.9-6.9-42.9-15.4c0-8.5,19.2-15.4,42.9-15.4&#10;&#9;&#9;&#9;S234.2,907.9,234.2,916.4z" class="st15" id="path3809-9-3"/>
		<path d="M228.5,920.8c0.1,4.6-15.8,9.6-36.5,10.4c-16.6,0.7-31.3-3.8-36.3-7.8&#10;&#9;&#9;&#9;c-1.5-1.2-2.1-2.1-1.7-2.6c3.4-4,16.9-9.5,37.4-9.5C211.9,911.2,228.4,915.5,228.5,920.8L228.5,920.8z" class="st16" id="path3809-6-9-8"/>
		<g transform="matrix(.56968 0 0 .56968 200.76 971.56)" id="imagebot_2-3-8">
			<g transform="matrix(.96875 0 0 .98751 1.9543 1.2975)" id="imagebot_3-3-5">
				<path d="M-3.7,0.3L13.4-9.9l7.7,14.8C23,13,12.8,16,4.7,15.5L-3.7,0.3L-3.7,0.3z" class="st4" id="imagebot_9-4-0"/>
				<path d="M-7.6,10.9l-9,16l9,16.2l0.2-6.5h8.2c3,0.3,6.9-1.7,8.3-4.6l10.6-19.4&#10;&#9;&#9;&#9;&#9;&#9;c-3.5,3.5-8,4.3-13.1,4.3H-7.3L-7.6,10.9L-7.6,10.9z" class="st4" id="imagebot_8-5-9"/>
				<path d="M-27.7-8.7l-17.3-10l9.2-13.9c6.2-5.6,13.7,1.9,17.2,9.3L-27.7-8.7L-27.7-8.7z" class="st4" id="imagebot_7-1-1"/>
				<path d="M-16.6-10.5l18.3,0.2l9.7-15.7l-5.8,2.9l-4-7.2c-1.2-2.8-4.8-5.2-8-5.1l-22.1,0.2&#10;&#9;&#9;&#9;&#9;&#9;c4.7,1.4,7.7,4.9,10.2,9.4l6.8,12.2L-16.6-10.5L-16.6-10.5z" class="st4" id="imagebot_6-8-1"/>
				<path d="M-58.2-9.6l5.4,4.1l-5,9.5c-2.5,4.4,1.8,8.6,4.6,10.1c2.7,1.5,6.9,1.6,10.9,1.6&#10;&#9;&#9;&#9;&#9;&#9;l7.1-11.4l5.4,2.8l-9.3-16.9L-58.2-9.6L-58.2-9.6z" class="st4" id="imagebot_5-9-1"/>
				<path d="M-57.4,12.4l11.5,20.8c2.3,2.9,6.7,3.6,11.2,3.5h12.1V16.9l-23-0.2&#10;&#9;&#9;&#9;&#9;&#9;C-49.2,17-53.9,16.2-57.4,12.4L-57.4,12.4z" class="st4" id="imagebot_4-2-4"/>
			</g>
			<title id="title3850-9-0">imagebot_2</title>
		</g>
	</g>
	<g transform="translate(-3.4089 10.227)" id="g4245">
		<path d="M286,683h65c7,0,12.6,5.7,12.6,12.6v91.9c0,7-5.7,12.6-12.6,12.6h-65&#10;&#9;&#9;&#9;c-7,0-12.6-5.7-12.6-12.6v-91.9C273.4,688.6,279.1,683,286,683z" class="st17" id="rect2996-29"/>
		<rect height="3.4" width="69.1" y="800.5" x="283.8" id="rect3766-44"/>
		<path d="M318.4,642.6c-26.4,0-48.2,13.2-51.7,30.4c0,0.1-0.1,0.3-0.1,0.4h0&#10;&#9;&#9;&#9;c-0.1,0.5-0.1,0.9-0.1,1.4V700c0,5.1,4.1,9.2,9.2,9.2h85.6c5.1,0,9.2-4.1,9.2-9.2v-25.1c0-1.2-0.3-2.4-0.7-3.4c0,0,0-0.1,0-0.1&#10;&#9;&#9;&#9;C365.2,655,344,642.6,318.4,642.6L318.4,642.6z" class="st18" id="rect2996-2-1"/>
		<path d="M361.6,689.2c0,8.8-19.2,15.9-42.9,15.9c-23.7,0-42.9-7.1-42.9-15.9s19.2-15.9,42.9-15.9&#10;&#9;&#9;&#9;C342.4,673.3,361.6,680.4,361.6,689.2z" class="st19" id="path3809-5"/>
		<path d="M355.9,694c0.1,4.6-15.8,9.6-36.5,10.4c-16.6,0.7-31.3-3.8-36.3-7.8&#10;&#9;&#9;&#9;c-1.5-1.2-2.1-2.1-1.7-2.6c3.4-4,16.9-9.5,37.4-9.5C339.3,684.5,355.8,688.8,355.9,694L355.9,694z" class="st20" id="path3809-6-0"/>
		<g transform="matrix(.56968 0 0 .56968 328.13 744.86)" id="imagebot_2-7">
			<g transform="matrix(.96875 0 0 .98751 1.9543 1.2975)" id="imagebot_3-5">
				<path d="M-3.7,0.3L13.4-9.9l7.7,14.8C23,13,12.8,16,4.7,15.5L-3.7,0.3L-3.7,0.3z" class="st4" id="imagebot_9-7"/>
				<path d="M-7.6,10.9l-9,15.9l9,16.2l0.2-6.5h8.2c3,0.3,6.9-1.7,8.3-4.6l10.6-19.4&#10;&#9;&#9;&#9;&#9;&#9;c-3.5,3.5-8,4.3-13.1,4.3H-7.3L-7.6,10.9L-7.6,10.9z" class="st4" id="imagebot_8-9"/>
				<path d="M-27.7-8.7l-17.3-10l9.2-13.9c6.2-5.6,13.7,1.9,17.2,9.3L-27.7-8.7L-27.7-8.7z" class="st4" id="imagebot_7-8"/>
				<path d="M-16.6-10.5l18.3,0.2l9.7-15.7l-5.8,2.9l-4-7.2c-1.2-2.8-4.8-5.2-8-5.1l-22.1,0.2&#10;&#9;&#9;&#9;&#9;&#9;c4.7,1.4,7.7,4.9,10.2,9.4l6.8,12.2L-16.6-10.5L-16.6-10.5z" class="st4" id="imagebot_6-62"/>
				<path d="M-58.2-9.6l5.4,4.1l-5,9.5c-2.5,4.4,1.8,8.6,4.6,10.1c2.7,1.5,6.9,1.6,10.9,1.6&#10;&#9;&#9;&#9;&#9;&#9;l7.1-11.4l5.4,2.8l-9.3-16.9L-58.2-9.6L-58.2-9.6z" class="st4" id="imagebot_5-67"/>
				<path d="M-57.4,12.4l11.5,20.8c2.3,2.9,6.7,3.6,11.2,3.5h12.1V16.9l-23-0.2&#10;&#9;&#9;&#9;&#9;&#9;C-49.2,17-53.9,16.2-57.4,12.4L-57.4,12.4z" class="st4" id="imagebot_4-9"/>
			</g>
			<title id="title3850-68">imagebot_2</title>
		</g>
	</g>
	<g transform="translate(-3.4089 -32.385)" id="g4197">
		<path d="M290.2,909.7h65c7,0,12.6,5.7,12.6,12.6v91.9c0,7-5.7,12.6-12.6,12.6h-65&#10;&#9;&#9;&#9;c-7,0-12.6-5.7-12.6-12.6v-91.9C277.5,915.3,283.2,909.7,290.2,909.7z" class="st21" id="rect2996-1-0"/>
		<rect height="3.4" width="69.1" y="1027.2" x="287.9" id="rect3766-4-9"/>
		<path d="M322.6,870c-25,0-45.9,11.8-51.1,27.6c0,0,0,0,0,0c-0.6,1.2-0.9,2.6-0.9,4v25.1&#10;&#9;&#9;&#9;c0,5.1,4.1,9.2,9.2,9.2h85.6c5.1,0,9.2-4.1,9.2-9.2v-25.1c0-0.3,0-0.6-0.1-0.8c-0.1-0.9-0.4-1.9-0.7-2.8&#10;&#9;&#9;&#9;C369,882,347.9,870,322.6,870L322.6,870z" class="st22" id="rect2996-2-6-9"/>
		<path d="M365.7,916.4c0,8.5-19.2,15.4-42.9,15.4c-23.7,0-42.9-6.9-42.9-15.4&#10;&#9;&#9;&#9;c0-8.5,19.2-15.4,42.9-15.4C346.5,901,365.7,907.9,365.7,916.4z" class="st23" id="path3809-9-4"/>
		<path d="M360,920.8c0.1,4.6-15.8,9.6-36.5,10.4c-16.6,0.7-31.3-3.8-36.3-7.8&#10;&#9;&#9;&#9;c-1.5-1.2-2.1-2.1-1.7-2.6c3.4-4,16.9-9.5,37.4-9.5C343.4,911.2,359.9,915.5,360,920.8L360,920.8z" class="st24" id="path3809-6-9-9"/>
		<g transform="matrix(.56968 0 0 .56968 332.25 971.56)" id="imagebot_2-3-5">
			<g transform="matrix(.96875 0 0 .98751 1.9543 1.2975)" id="imagebot_3-3-8">
				<path d="M-3.7,0.3L13.4-9.9l7.7,14.8C23,13,12.8,16,4.7,15.5L-3.7,0.3L-3.7,0.3z" class="st4" id="imagebot_9-4-5"/>
				<path d="M-7.6,10.9l-9,16l9,16.2l0.2-6.5h8.2c3,0.3,6.9-1.7,8.3-4.6l10.6-19.4&#10;&#9;&#9;&#9;&#9;&#9;c-3.5,3.5-8,4.3-13.1,4.3H-7.3L-7.6,10.9L-7.6,10.9z" class="st4" id="imagebot_8-5-7"/>
				<path d="M-27.7-8.7l-17.3-10l9.2-13.9c6.2-5.6,13.7,1.9,17.2,9.3L-27.7-8.7L-27.7-8.7z" class="st4" id="imagebot_7-1-14"/>
				<path d="M-16.6-10.5l18.3,0.2l9.7-15.7l-5.8,2.9l-4-7.2c-1.2-2.8-4.8-5.2-8-5.1l-22.1,0.2&#10;&#9;&#9;&#9;&#9;&#9;c4.7,1.4,7.7,4.9,10.2,9.4l6.8,12.2L-16.6-10.5L-16.6-10.5z" class="st4" id="imagebot_6-8-8"/>
				<path d="M-58.2-9.6l5.4,4.1l-5,9.5c-2.5,4.4,1.8,8.6,4.6,10.1c2.7,1.5,6.9,1.6,10.9,1.6&#10;&#9;&#9;&#9;&#9;&#9;l7.1-11.4l5.4,2.8l-9.3-16.9L-58.2-9.6L-58.2-9.6z" class="st4" id="imagebot_5-9-3"/>
				<path d="M-57.4,12.4l11.5,20.8c2.3,2.9,6.7,3.6,11.2,3.5h12.1V16.9l-23-0.2&#10;&#9;&#9;&#9;&#9;&#9;C-49.2,17-53.9,16.2-57.4,12.4L-57.4,12.4z" class="st4" id="imagebot_4-2-3"/>
			</g>
			<title id="title3850-9-4">imagebot_2</title>
		</g>
	</g>
</g>
</svg>
